PathFileType	4	(X/Y/Z)	8_coords_data.trc
DataRate	CameraRate	NumFrames	NumMarkers	Units	OrigDataRate	OrigDataStartFrame	OrigNumFrames
30.0	30.0	6	21	m	30.0	10	56
Frame#	Time	THUMB_TIP	THUMB_IP	THUMB_MCP	THUMB_CMC	INDEX_TIP	INDEX_DIP	INDEX_PIP	INDEX_MCP	MIDDLE_TIP	MIDDLE_DIP	MIDDLE_PIP	MIDDLE_MCP	RING_TIP	RING_DIP	RING_PIP	RING_MCP	PINKY_TIP	PINKY_DIP	PINKY_PIP	PINKY_MCP	WRIST
X1	Y1	Z1	X2	Y2	Z2	X3	Y3	Z3	X4	Y4	Z4	X5	Y5	Z5	X6	Y6	Z6	X7	Y7	Z7	X8	Y8	Z8	X9	Y9	Z9	X10	Y10	Z10	X11	Y11	Z11	X12	Y12	Z12	X13	Y13	Z13	X14	Y14	Z14	X15	Y15	Z15	X16	Y16	Z16	X17	Y17	Z17	X18	Y18	Z18	X19	Y19	Z19	X20	Y20	Z20	X21	Y21	Z21
9	0.3	-0.04261669921875	-0.057418701171875	0.9486580200195313	-0.032446998596191406	-0.04352389907836914	0.9673510131835937	-0.026764400482177736	-0.03034560012817383	0.989989990234375	-0.03976940155029297	-0.009531929969787597	1.0035499877929688	-0.004495510101318359	-0.13370899963378907	0.9796309814453125	-0.010167300224304199	-0.11372100067138671	0.985447021484375	-0.01827429962158203	-0.09740760040283203	0.9942520141601563	-0.03401729965209961	-0.06705950164794922	1.0087899780273437	-0.03636819839477539	-0.043915901184082035	0.9855880126953125	-0.03325	-0.0575817985534668	0.9733469848632812	-0.038245201110839844	-0.08083809661865235	0.9744390258789063	-0.05709970092773437	-0.06889179992675781	1.0080999755859374	-0.04606679916381836	-0.04192190170288086	0.9727069702148438	-0.0488302001953125	-0.058756900787353517	0.9646840209960937	-0.06032419967651367	-0.07893260192871093	0.96910498046875	-0.06989900207519531	-0.061484699249267576	0.9956199951171875	-0.10589900207519531	-0.1029000015258789	0.9696530151367188	-0.09762010192871094	-0.084756103515625	0.9744730224609375	-0.0910907974243164	-0.07136160278320312	0.979176025390625	-0.07888929748535156	-0.050045799255371094	0.984031005859375	-0.06318040084838868	0.0019051400423049922	1.026949951171875
10	0.3333333333333333	-0.04265420150756836	-0.057188201904296875	0.9483690185546875	-0.032508399963378905	-0.043346500396728514	0.9670989990234375	-0.026772300720214845	-0.030213600158691407	0.9898259887695312	-0.039803001403808595	-0.009408869743347169	1.00327001953125	-0.00481160020828247	-0.1336490020751953	0.979281982421875	-0.010454400062561035	-0.11362000274658203	0.9851430053710938	-0.018524200439453124	-0.09732849884033203	0.993968994140625	-0.03417200088500977	-0.06698480224609375	1.0085499877929687	-0.03633190155029297	-0.04398540115356445	0.9854439697265625	-0.0333202018737793	-0.05736660003662109	0.9733189697265625	-0.03840679931640625	-0.08065670013427734	0.9740809936523438	-0.05736230087280274	-0.06880030059814453	1.0076799926757813	-0.046142898559570315	-0.0416786994934082	0.9724539794921875	-0.048914398193359375	-0.05858229827880859	0.9643880004882812	-0.06043579864501953	-0.07861640167236328	0.9688829956054688	-0.07001959991455078	-0.06127980041503906	0.9953070068359375	-0.1060739974975586	-0.10262999725341797	0.9692410278320313	-0.09777619934082031	-0.08448249816894532	0.9740659790039062	-0.09120880126953125	-0.07111119842529297	0.9788280029296875	-0.07900740051269531	-0.049848499298095705	0.9837509765625	-0.06322320175170898	0.0020223300457000728	1.02675
11	0.36666666666666664	-0.04284529876708985	-0.057071300506591795	0.9482239990234375	-0.03263830184936523	-0.043231998443603516	0.9669240112304688	-0.026914899826049804	-0.030064199447631838	0.9896580200195313	-0.03999869918823242	-0.009265230178833008	1.0032000122070313	-0.0049013299942016605	-0.13359599304199218	0.9791420288085938	-0.01053689956665039	-0.11356800079345702	0.9849769897460937	-0.018622699737548827	-0.09726249694824218	0.9937670288085938	-0.03429629898071289	-0.06691619873046875	1.0084099731445313	-0.0367041015625	-0.044087299346923826	0.985885009765625	-0.03350099945068359	-0.05742160034179687	0.97314697265625	-0.038517898559570315	-0.08059619903564454	0.9739359741210938	-0.0573661003112793	-0.06862519836425782	1.0074500122070313	-0.04632279968261719	-0.04175479888916016	0.9721539916992188	-0.04908919906616211	-0.05848350143432617	0.96410400390625	-0.06057049942016601	-0.07860459899902343	0.9686119995117187	-0.07013179779052735	-0.061217601776123044	0.9950700073242188	-0.10623200225830078	-0.10256099700927734	0.96910400390625	-0.09794969940185547	-0.08444640350341796	0.97389599609375	-0.09137079620361328	-0.07110919952392578	0.9786380004882812	-0.07907779693603516	-0.049821498870849606	0.98339599609375	-0.06345119857788085	0.002069439888000488	1.026550048828125
12	0.4	-0.042971099853515625	-0.05714979934692383	0.9481119995117188	-0.032793300628662106	-0.043292800903320314	0.9667739868164062	-0.027175600051879883	-0.030156200408935546	0.9897849731445313	-0.040152698516845706	-0.009413519859313964	1.0031799926757812	-0.005408309936523438	-0.13399600219726562	0.9792360229492187	-0.010960499763488769	-0.11385199737548828	0.9850349731445313	-0.01896660041809082	-0.09756390380859375	0.9937360229492187	-0.034565498352050784	-0.06705879974365235	1.0081799926757813	-0.03677130126953125	-0.043963401794433594	0.98547900390625	-0.03381579971313477	-0.05744390106201172	0.9728499755859376	-0.03876350021362305	-0.08068900299072265	0.973801025390625	-0.05769599914550781	-0.06879859924316406	1.007260009765625	-0.04649560165405273	-0.04175460052490235	0.972176025390625	-0.049268901824951174	-0.05858620071411133	0.9640800170898437	-0.060760501861572266	-0.07860299682617188	0.9684710083007813	-0.07031719970703125	-0.06130429840087891	0.9949130249023438	-0.10664199829101563	-0.10249099731445313	0.9689240112304688	-0.09822339630126953	-0.08442340087890625	0.9737160034179687	-0.09161119842529297	-0.07110859680175781	0.9784810180664063	-0.07928130340576171	-0.04980899810791015	0.9833259887695313	-0.06354299926757813	0.001907960057258606	1.02647998046875
13	0.43333333333333335	-0.04307519912719727	-0.057349601745605466	0.94802197265625	-0.03293759918212891	-0.04353499984741211	0.96672900390625	-0.0272992000579834	-0.03042919921875	0.9895900268554687	-0.04037369918823242	-0.009589119911193848	1.0030499877929688	-0.0061599302291870115	-0.13448100280761718	0.9793469848632812	-0.011547300338745117	-0.11436699676513672	0.9850880126953125	-0.01942989921569824	-0.09795549774169922	0.9937940063476562	-0.0349182014465332	-0.0673196029663086	1.0083599853515626	-0.037165599822998045	-0.04423580169677734	0.9856699829101563	-0.03423680114746094	-0.05768550109863281	0.9726329956054688	-0.03906980133056641	-0.08081749725341797	0.9736729736328125	-0.058016300201416016	-0.06897769927978516	1.0072999877929687	-0.04665370178222656	-0.04190999984741211	0.9720260009765626	-0.049513698577880856	-0.05877370071411133	0.9638150024414063	-0.06101969909667969	-0.07871630096435547	0.968447998046875	-0.07062519836425782	-0.06142020034790039	0.9949739990234375	-0.10703500366210937	-0.10259400177001952	0.9688770141601563	-0.09851820373535156	-0.08449929809570313	0.9736179809570312	-0.09192279815673828	-0.07115409851074218	0.9785369873046875	-0.07953810119628907	-0.04998149871826172	0.9833150024414062	-0.06378860092163086	0.0017852200269699093	1.02652001953125
14	0.4666666666666667	-0.043211101531982425	-0.05733060073852539	0.9476209716796875	-0.033247501373291015	-0.04341690063476562	0.9665859985351563	-0.027637800216674804	-0.030401399612426758	0.989385986328125	-0.04067200088500977	-0.009580949783325195	1.0029199829101563	-0.006723219871520996	-0.13461000061035155	0.9790969848632812	-0.012096099853515625	-0.11439299774169921	0.9848469848632813	-0.019896400451660155	-0.09801860046386719	0.9935139770507813	-0.03530189895629883	-0.0673134994506836	1.0080700073242188	-0.037561798095703126	-0.044122001647949216	0.985333984375	-0.03472740173339844	-0.05756520080566406	0.9725269775390625	-0.039425399780273436	-0.08072989654541016	0.9733569946289062	-0.05821480178833008	-0.06892009735107422	1.0071099853515626	-0.047120800018310545	-0.042066200256347656	0.9713759765625	-0.04983459854125977	-0.05871289825439453	0.9634609985351562	-0.06134809875488281	-0.07864409637451172	0.968010986328125	-0.071	-0.06137009811401367	0.9946409912109375	-0.1073479995727539	-0.10246299743652344	0.9684979858398437	-0.09887860107421875	-0.0844029998779297	0.9733259887695312	-0.0923041000366211	-0.07111579895019532	0.9782930297851562	-0.07991989898681641	-0.04988669967651367	0.9831309814453125	-0.06407839965820313	0.0017473700046539303	1.026260009765625
